{
    "asset" : {
        "generator" : "Khronos glTF Blender I/O v3.2.43",
        "version" : "2.0"
    },
    "scene" : 0,
    "scenes" : [
        {
            "name" : "Tree0",
            "nodes" : [
                0
            ]
        },
        {
            "name" : "Tree1",
            "nodes" : [
                1
            ]
        }
    ],
    "nodes" : [
        {
            "mesh" : 0,
            "name" : "Tree0",
            "rotation" : [
                0.7071068286895752,
                0,
                0,
                0.7071068286895752
            ]
        },
        {
            "mesh" : 1,
            "name" : "Tree_Type0_03_mesh",
            "rotation" : [
                0.7071068286895752,
                0,
                0,
                0.7071068286895752
            ]
        }
    ],
    "materials" : [
        {
            "doubleSided" : true,
            "name" : "_trees_normal.001",
            "pbrMetallicRoughness" : {
                "baseColorTexture" : {
                    "index" : 0
                },
                "metallicFactor" : 0,
                "roughnessFactor" : 0.5
            }
        },
        {
            "doubleSided" : true,
            "name" : "_trees_normal.003",
            "pbrMetallicRoughness" : {
                "baseColorTexture" : {
                    "index" : 1
                },
                "metallicFactor" : 0,
                "roughnessFactor" : 0.5
            }
        }
    ],
    "meshes" : [
        {
            "name" : "Tree Type0 01_mesh.001",
            "primitives" : [
                {
                    "attributes" : {
                        "POSITION" : 0,
                        "NORMAL" : 1,
                        "TEXCOORD_0" : 2
                    },
                    "indices" : 3,
                    "material" : 0
                }
            ]
        },
        {
            "name" : "Tree Type0 03_mesh",
            "primitives" : [
                {
                    "attributes" : {
                        "POSITION" : 4,
                        "NORMAL" : 5,
                        "TEXCOORD_0" : 6
                    },
                    "indices" : 7,
                    "material" : 1
                }
            ]
        }
    ],
    "textures" : [
        {
            "sampler" : 0,
            "source" : 0
        },
        {
            "sampler" : 0,
            "source" : 0
        }
    ],
    "images" : [
        {
            "mimeType" : "image/png",
            "name" : "Colorsheet Tree Normal",
            "uri" : "Colorsheet%20Tree%20Normal.png"
        }
    ],
    "accessors" : [
        {
            "bufferView" : 0,
            "componentType" : 5126,
            "count" : 2018,
            "max" : [
                2.6271719932556152,
                3.0106070041656494,
                0.2611052989959717
            ],
            "min" : [
                -3.203979015350342,
                -3.333735942840576,
                -3.2444610595703125
            ],
            "type" : "VEC3"
        },
        {
            "bufferView" : 1,
            "componentType" : 5126,
            "count" : 2018,
            "type" : "VEC3"
        },
        {
            "bufferView" : 2,
            "componentType" : 5126,
            "count" : 2018,
            "type" : "VEC2"
        },
        {
            "bufferView" : 3,
            "componentType" : 5123,
            "count" : 2772,
            "type" : "SCALAR"
        },
        {
            "bufferView" : 4,
            "componentType" : 5126,
            "count" : 3122,
            "max" : [
                1.4360469579696655,
                1.283879041671753,
                0.03616635873913765
            ],
            "min" : [
                -1.3442800045013428,
                -1.4015239477157593,
                -8.438488006591797
            ],
            "type" : "VEC3"
        },
        {
            "bufferView" : 5,
            "componentType" : 5126,
            "count" : 3122,
            "type" : "VEC3"
        },
        {
            "bufferView" : 6,
            "componentType" : 5126,
            "count" : 3122,
            "type" : "VEC2"
        },
        {
            "bufferView" : 7,
            "componentType" : 5123,
            "count" : 4650,
            "type" : "SCALAR"
        }
    ],
    "bufferViews" : [
        {
            "buffer" : 0,
            "byteLength" : 24216,
            "byteOffset" : 0
        },
        {
            "buffer" : 0,
            "byteLength" : 24216,
            "byteOffset" : 24216
        },
        {
            "buffer" : 0,
            "byteLength" : 16144,
            "byteOffset" : 48432
        },
        {
            "buffer" : 0,
            "byteLength" : 5544,
            "byteOffset" : 64576
        },
        {
            "buffer" : 0,
            "byteLength" : 37464,
            "byteOffset" : 70120
        },
        {
            "buffer" : 0,
            "byteLength" : 37464,
            "byteOffset" : 107584
        },
        {
            "buffer" : 0,
            "byteLength" : 24976,
            "byteOffset" : 145048
        },
        {
            "buffer" : 0,
            "byteLength" : 9300,
            "byteOffset" : 170024
        }
    ],
    "samplers" : [
        {
            "magFilter" : 9729,
            "minFilter" : 9987
        }
    ],
    "buffers" : [
        {
            "byteLength" : 179324,
            "uri" : "models.bin"
        }
    ]
}
